HIERARCHY
ROOT Hips
{
	OFFSET -0.001795 -0.223333 0.028219
	CHANNELS 6 Xposition Yposition Zposition Zrotation Yrotation Xrotation 
	JOINT LeftUpLeg
	{
		OFFSET 0.069520 -0.091406 -0.006815
		CHANNELS 3 Zrotation Yrotation Xrotation
		JOINT LeftLeg
		{
			OFFSET 0.034277 -0.375199 -0.004496
			CHANNELS 3 Zrotation Yrotation Xrotation
			JOINT LeftFoot
			{
				OFFSET -0.013596 -0.397961 -0.043693
				CHANNELS 3 Zrotation Yrotation Xrotation
				JOINT LeftToe
				{
					OFFSET 0.026358 -0.055791 0.119288
					CHANNELS 3 Zrotation Yrotation Xrotation
					End Site
					{
						OFFSET 0.000000 0.000000 0.000000
					}
				}
			}
		}
	}
	JOINT RightUpLeg
	{
		OFFSET -0.067670 -0.090522 -0.004320
		CHANNELS 3 Zrotation Yrotation Xrotation
		JOINT RightLeg
		{
			OFFSET -0.038290 -0.382569 -0.008850
			CHANNELS 3 Zrotation Yrotation Xrotation
			JOINT RightFoot
			{
				OFFSET 0.015774 -0.398415 -0.042312
				CHANNELS 3 Zrotation Yrotation Xrotation
				JOINT RightToe
				{
					OFFSET -0.025372 -0.048144 0.123348
					CHANNELS 3 Zrotation Yrotation Xrotation
					End Site
					{
						OFFSET 0.000000 0.000000 0.000000
					}
				}
			}
		}
	}
	JOINT Spine
	{
		OFFSET -0.002533 0.108963 -0.026696
		CHANNELS 3 Zrotation Yrotation Xrotation
		JOINT Spine1
		{
			OFFSET 0.005487 0.135180 0.001092
			CHANNELS 3 Zrotation Yrotation Xrotation
			JOINT Spine2
			{
				OFFSET 0.001457 0.052922 0.025425
				CHANNELS 3 Zrotation Yrotation Xrotation
				JOINT Neck
				{
					OFFSET -0.002778 0.213870 -0.042857
					CHANNELS 3 Zrotation Yrotation Xrotation
					JOINT Head
					{
						OFFSET 0.005152 0.064970 0.051349
						CHANNELS 3 Zrotation Yrotation Xrotation
						End Site
						{
							OFFSET 0.000000 0.000000 0.000000
						}
					}
				}
				JOINT LeftShoulder
				{
					OFFSET 0.078845 0.121749 -0.034090
					CHANNELS 3 Zrotation Yrotation Xrotation
					JOINT LeftArm
					{
						OFFSET 0.090977 0.030469 -0.008868
						CHANNELS 3 Zrotation Yrotation Xrotation
						JOINT LeftForeArm
						{
							OFFSET 0.259612 -0.012772 -0.027456
							CHANNELS 3 Zrotation Yrotation Xrotation
							JOINT LeftHand
							{
								OFFSET 0.249234 0.008986 -0.001171
								CHANNELS 3 Zrotation Yrotation Xrotation
								End Site
								{
									OFFSET 0.000000 0.000000 0.000000
								}
							}
						}
					}
				}
				JOINT RightShoulder
				{
					OFFSET -0.081759 0.118833 -0.038615
					CHANNELS 3 Zrotation Yrotation Xrotation
					JOINT RightArm
					{
						OFFSET -0.096012 0.032551 -0.009143
						CHANNELS 3 Zrotation Yrotation Xrotation
						JOINT RightForeArm
						{
							OFFSET -0.253742 -0.013329 -0.021401
							CHANNELS 3 Zrotation Yrotation Xrotation
							JOINT RightHand
							{
								OFFSET -0.255298 0.007772 -0.005559
								CHANNELS 3 Zrotation Yrotation Xrotation
								End Site
								{
									OFFSET 0.000000 0.000000 0.000000
								}
							}
						}
					}
				}
			}
		}
	}
}
MOTION
Frames: 14
Frame Time: 0.050000
-0.011935 0.852778 -0.022667 1.641726 -8.623199 1.513324 -10.212604 -3.922207 -24.458735 -3.101533 1.633591 39.020258 6.799058 12.583836 -18.197754 0.000000 0.000000 0.000000 -4.922205 2.058165 -24.834938 -0.968180 6.912376 61.399395 -8.864291 -21.537247 -3.196488 0.000000 0.000000 0.000000 2.432619 -1.131459 28.231598 -10.352709 3.073136 -22.784383 -3.599356 12.342471 31.477341 8.532562 -0.478076 -39.027418 0.000000 0.000000 0.000000 -15.966782 -12.798175 4.206934 -50.132972 -12.701884 -3.383322 4.112134 -80.184765 0.412408 0.000000 0.000000 0.000000 24.482294 4.678735 3.974940 56.414072 13.049342 -2.833423 15.241983 59.098814 14.407336 0.000000 0.000000 0.000000 
-0.011902 0.852848 -0.023015 1.462910 -8.809328 1.220439 -10.415420 -3.917080 -24.169918 -2.781216 1.522580 39.219983 6.699086 12.370125 -17.749461 0.000000 0.000000 0.000000 -4.634514 2.071720 -24.395231 -1.336357 7.151266 60.709517 -8.859590 -21.481310 -3.528755 0.000000 0.000000 0.000000 2.549067 -1.151530 28.455246 -10.278721 3.040752 -22.983336 -3.210232 12.317213 31.659543 8.290691 -0.300756 -39.888464 0.000000 0.000000 0.000000 -15.885955 -12.279085 3.981650 -50.287180 -12.868691 -3.353344 1.676414 -79.441396 2.495343 0.000000 0.000000 0.000000 24.232350 4.332196 3.708672 56.100216 13.078164 -2.837914 15.720964 58.383803 14.426502 0.000000 0.000000 0.000000 
-0.011772 0.852876 -0.023285 1.447133 -9.223424 0.839818 -10.640277 -3.893726 -23.785896 -2.566062 1.490708 39.124636 6.702312 12.517534 -17.660034 0.000000 0.000000 0.000000 -4.506655 2.049649 -23.789635 -1.661443 7.412568 59.900088 -8.824251 -21.324656 -4.027781 0.000000 0.000000 0.000000 2.762954 -1.174144 28.647307 -10.224315 3.025776 -23.004092 -3.308351 12.390193 31.703016 8.247659 -0.291525 -40.043388 0.000000 0.000000 0.000000 -15.618286 -11.958311 3.867048 -50.840173 -12.961226 -3.370271 0.273583 -78.390670 3.696544 0.000000 0.000000 0.000000 24.004344 4.055821 3.463807 55.940856 12.817257 -2.950863 16.599037 58.211084 14.826611 0.000000 0.000000 0.000000 
-0.011636 0.853509 -0.023451 1.380580 -9.276876 0.496444 -11.006772 -3.879012 -23.179615 -2.011116 1.213490 38.884210 6.577206 12.200965 -17.390942 0.000000 0.000000 0.000000 -4.406101 2.003231 -23.176442 -1.989401 7.522134 59.026544 -8.797675 -21.212093 -4.160341 0.000000 0.000000 0.000000 3.028416 -1.238574 28.761850 -10.122450 3.000235 -23.060100 -3.199265 12.274324 31.746549 8.009791 -0.163885 -40.511341 0.000000 0.000000 0.000000 -15.645609 -11.640811 3.743802 -51.395322 -13.337211 -3.254999 -1.845113 -77.095154 5.410418 0.000000 0.000000 0.000000 23.846662 3.690919 3.183001 55.880111 12.409034 -3.139189 18.114065 57.522664 15.422820 0.000000 0.000000 0.000000 
-0.011677 0.853920 -0.023596 1.470648 -9.344350 0.259173 -11.151384 -3.879271 -22.983044 -1.970307 1.215923 38.981850 6.550618 12.155348 -17.252961 0.000000 0.000000 0.000000 -4.420179 1.975949 -22.916562 -2.193287 7.619976 58.590688 -8.889378 -21.419324 -4.183596 0.000000 0.000000 0.000000 3.296779 -1.298134 28.734833 -9.916037 2.940847 -23.209618 -3.289801 12.238876 31.964322 7.721894 -0.074780 -40.339390 0.000000 0.000000 0.000000 -15.550735 -11.416998 3.666462 -51.950912 -13.571363 -3.216559 -2.725537 -76.197649 6.120359 0.000000 0.000000 0.000000 23.680500 3.447390 2.994781 56.079157 11.945387 -3.362478 19.361484 57.062670 15.959724 0.000000 0.000000 0.000000 
-0.011899 0.854750 -0.023680 1.530395 -9.254633 -0.131598 -11.291811 -3.826332 -22.376565 -1.764671 1.095400 38.801265 6.360399 11.554779 -17.245080 0.000000 0.000000 0.000000 -4.522635 1.903402 -22.421620 -2.411510 7.633729 57.938863 -8.897332 -21.403589 -4.341537 0.000000 0.000000 0.000000 3.651077 -1.387681 28.573942 -9.855339 2.952730 -22.849011 -3.345927 12.074365 31.795979 7.297942 0.126534 -40.652154 0.000000 0.000000 0.000000 -15.515483 -11.204277 3.580243 -52.328470 -13.906224 -3.075637 -3.422580 -75.352573 6.618351 0.000000 0.000000 0.000000 23.727409 3.198678 2.799739 56.186269 11.400547 -3.594461 20.845077 56.314088 16.481306 0.000000 0.000000 0.000000 
-0.012366 0.855398 -0.023574 1.695542 -9.215346 -0.510908 -11.499078 -3.779369 -21.760778 -1.645605 1.021918 38.502820 6.289490 11.357380 -17.210019 0.000000 0.000000 0.000000 -4.574338 1.861534 -22.129275 -2.622457 7.757912 57.805145 -8.975455 -21.591562 -4.036262 0.000000 0.000000 0.000000 3.921816 -1.450958 28.529620 -9.790079 2.931877 -23.054440 -3.339305 12.058433 32.139591 6.916310 0.296495 -40.793981 0.000000 0.000000 0.000000 -15.329972 -10.925032 3.462007 -52.805574 -14.236593 -2.997617 -3.818544 -75.462932 7.016995 0.000000 0.000000 0.000000 23.501725 2.955912 2.645183 56.502010 10.802817 -3.900181 22.893957 56.039882 17.566311 0.000000 0.000000 0.000000 
-0.013002 0.856496 -0.023277 1.904772 -8.914292 -0.967684 -11.907592 -3.712054 -20.757560 -1.265423 0.760756 37.834290 6.079734 10.651379 -17.327037 0.000000 0.000000 0.000000 -4.667662 1.774089 -21.540398 -2.843909 7.704942 57.141885 -9.052327 -21.756745 -4.112286 0.000000 0.000000 0.000000 4.243114 -1.535192 28.159584 -9.594741 2.900153 -22.892499 -3.453283 12.150771 32.392203 6.911819 0.367831 -41.288358 0.000000 0.000000 0.000000 -15.444334 -10.777785 3.340847 -52.966598 -14.310279 -2.988836 -3.897878 -75.776810 7.072422 0.000000 0.000000 0.000000 23.398757 2.770654 2.604157 56.395717 10.237525 -4.202844 24.357285 55.528018 18.233140 0.000000 0.000000 0.000000 
-0.013733 0.857513 -0.023008 2.100915 -8.720155 -1.305098 -12.131123 -3.621336 -19.893344 -1.292883 0.715968 37.039539 5.975862 10.339245 -17.220861 0.000000 0.000000 0.000000 -4.800172 1.708185 -21.161965 -3.161883 7.824218 56.869097 -8.989439 -21.600903 -3.652853 0.000000 0.000000 0.000000 4.443322 -1.578535 27.782422 -9.565460 2.906021 -22.812700 -3.447489 12.213466 32.609474 6.574518 0.536887 -41.347329 0.000000 0.000000 0.000000 -15.529047 -10.665410 3.256140 -53.120925 -14.221747 -3.048457 -4.084212 -75.989289 7.229068 0.000000 0.000000 0.000000 22.886268 2.725060 2.599035 56.850885 9.813673 -4.406618 25.514560 55.164206 18.805093 0.000000 0.000000 0.000000 
-0.014476 0.859468 -0.023131 2.282335 -8.542637 -1.631911 -12.270338 -3.504590 -18.991005 -1.214557 0.622678 36.183720 5.915925 10.191544 -17.049975 0.000000 0.000000 0.000000 -4.847040 1.651300 -20.723723 -3.406773 7.877515 56.488746 -8.812070 -21.160860 -3.322671 0.000000 0.000000 0.000000 4.779477 -1.639585 27.127194 -9.453433 2.882556 -22.894642 -3.572343 12.415137 32.907702 6.405211 0.653758 -41.496067 0.000000 0.000000 0.000000 -15.499580 -10.431381 3.097173 -53.306952 -13.879555 -3.238581 -5.453797 -75.942232 8.249621 0.000000 0.000000 0.000000 22.632288 2.381492 2.471175 56.896867 9.172426 -4.753518 27.323900 54.514407 19.634438 0.000000 0.000000 0.000000 
-0.015138 0.862002 -0.023806 2.360203 -8.272866 -1.932543 -12.382552 -3.400188 -18.201051 -1.059699 0.485133 35.411243 5.749890 9.756979 -16.467790 0.000000 0.000000 0.000000 -4.862684 1.593444 -20.246592 -3.657756 7.889049 56.040043 -8.672592 -20.833233 -2.832871 0.000000 0.000000 0.000000 5.241962 -1.725388 26.327021 -9.563605 2.925260 -22.843712 -3.545072 12.375907 33.249120 5.983011 0.861003 -41.759600 0.000000 0.000000 0.000000 -15.791646 -10.276868 3.002140 -53.074222 -13.474037 -3.422144 -6.039573 -75.611966 8.639356 0.000000 0.000000 0.000000 22.115460 2.346172 2.447581 57.268402 8.894215 -4.892210 27.631109 54.076506 19.661453 0.000000 0.000000 0.000000 
-0.015692 0.865782 -0.024791 2.426673 -8.172475 -2.255407 -12.453176 -3.254630 -17.256601 -1.050171 0.432255 34.270486 5.540765 9.321849 -15.584461 0.000000 0.000000 0.000000 -4.873323 1.558549 -19.939690 -3.792623 7.825284 55.351407 -8.568512 -20.583657 -2.490207 0.000000 0.000000 0.000000 5.638306 -1.775704 25.537900 -9.517874 2.913617 -22.966347 -3.454740 12.527386 33.691799 5.803071 0.976191 -42.044180 0.000000 0.000000 0.000000 -15.779643 -10.016754 2.849790 -53.071361 -13.078367 -3.633315 -8.379432 -75.082827 10.333405 0.000000 0.000000 0.000000 21.762236 1.846520 2.199124 57.388125 8.579219 -5.081445 28.528855 53.354395 19.929597 0.000000 0.000000 0.000000 
-0.016258 0.870747 -0.025533 2.509704 -7.864269 -2.564736 -12.462712 -3.071881 -16.140039 -1.039847 0.343697 32.899649 5.370568 9.021580 -14.501900 0.000000 0.000000 0.000000 -4.788132 1.512879 -19.447303 -3.861557 7.646521 54.627765 -8.378377 -20.152043 -1.968191 0.000000 0.000000 0.000000 5.884132 -1.788909 24.574658 -9.477568 2.921509 -22.805010 -3.485903 12.169944 33.712367 5.620524 0.997435 -41.720444 0.000000 0.000000 0.000000 -16.055475 -9.366332 2.558933 -52.867557 -12.233555 -3.979377 -11.632467 -74.405054 12.734355 0.000000 0.000000 0.000000 21.576142 1.422555 1.879374 57.298044 7.946701 -5.358163 29.606079 52.631151 20.140745 0.000000 0.000000 0.000000 
-0.016923 0.876922 -0.025736 2.423174 -7.549433 -2.938293 -12.359941 -2.770296 -14.468141 -0.810550 0.152600 30.733122 5.077728 8.394758 -13.463578 0.000000 0.000000 0.000000 -4.866621 1.429197 -18.746771 -3.915254 7.397787 53.591641 -8.046667 -19.417879 -1.130343 0.000000 0.000000 0.000000 6.283327 -1.830245 23.675482 -9.478372 2.924160 -22.950154 -3.462454 12.159328 34.046809 6.023499 0.834160 -41.732530 0.000000 0.000000 0.000000 -16.400940 -8.826147 2.245633 -52.451565 -11.453385 -4.307711 -16.131522 -73.469097 15.847380 0.000000 0.000000 0.000000 21.958100 0.577204 1.451276 56.871092 7.200464 -5.764780 30.918514 51.856585 20.533274 0.000000 0.000000 0.000000 
